PathFileType	4	(X/Y/Z)	C:/Users/opensim2020/Desktop/walking_exp_matlab/subject06_walking15_straight_03.trc																																																																																																																																											
DataRate	CameraRate	NumFrames	NumMarkers	Units	OrigDataRate	OrigDataStartFrame	OrigNumFrames																																																																																																																																							
100	100	5	47	mm	100	2233	193																																																																																																																																							
Frame#	Time	LFHD			RFHD			LBHD			RBHD			C7			T10			CLAV			STRN			RBAK			LSHO			LUPA			LELB			LFRM			LWRA			LWRB			LFIN			RSHO			RUPA			RELB			RFRM			RWRA			RWRB			RFIN			LASI			RASI			LPSI			RPSI			LTHI			LKNE			LTIB			LANK			LHEE			LTOE			RTHI			RKNE			RTIB			RANK			RHEE			RTOE			*39			*40			*41			*42			*43			*44			*45			*46		
		X1	Y1	Z1	X2	Y2	Z2	X3	Y3	Z3	X4	Y4	Z4	X5	Y5	Z5	X6	Y6	Z6	X7	Y7	Z7	X8	Y8	Z8	X9	Y9	Z9	X10	Y10	Z10	X11	Y11	Z11	X12	Y12	Z12	X13	Y13	Z13	X14	Y14	Z14	X15	Y15	Z15	X16	Y16	Z16	X17	Y17	Z17	X18	Y18	Z18	X19	Y19	Z19	X20	Y20	Z20	X21	Y21	Z21	X22	Y22	Z22	X23	Y23	Z23	X24	Y24	Z24	X25	Y25	Z25	X26	Y26	Z26	X27	Y27	Z27	X28	Y28	Z28	X29	Y29	Z29	X30	Y30	Z30	X31	Y31	Z31	X32	Y32	Z32	X33	Y33	Z33	X34	Y34	Z34	X35	Y35	Z35	X36	Y36	Z36	X37	Y37	Z37	X38	Y38	Z38	X39	Y39	Z39	X40	Y40	Z40	X41	Y41	Z41	X42	Y42	Z42	X43	Y43	Z43	X44	Y44	Z44	X45	Y45	Z45	X46	Y46	Z46	X47	Y47	Z47
																																																																																																																																														
97	0.96	-157.97144	1667.93457	1368.41785	-151.0352	1661.24536	1500.15942	-291.09854	1613.73096	1376.94092	-283.01389	1612.38464	1506.48901	-290.0083	1461.22742	1438.68787	-341.97726	1136.229	1453.92444	-183.04228	1379.16895	1434.9707	-153.63959	1202.76904	1431.81726	-366.17242	1298.31348	1525.14221	-246.00453	1409.97888	1275.00122	-271.56412	1206.49023	1210.28259	-286.26993	1093.85352	1204.854	-266.24261	944.05811	1185.23584	-201.8053	830.80029	1225.43127	-263.84271	825.28961	1191.45154	-221.35156	745.02576	1189.53711	-219.25996	1418.36523	1596.13086	-268.71338	1231.97144	1698.82031	-262.09802	1113.4585	1721.27405	-215.80305	1005.1806	1739.36804	-117.11842	893.75348	1699.2937	-163.79878	879.18475	1744.4447	-104.06553	820.4248	1743.61084	-172.9698	965.66455	1343.0929	-169.07549	975.59637	1562.297	-332.2171	997.6756	1373.20947	-320.27109	1008.27618	1541.07764	-182.10483	656.22864	1290.11633	-129.06865	502.65845	1315.60376	-265.10815	295.89758	1320.5929	-356.70621	149.86536	1356.06006	-400.32147	152.70349	1402.77661	-243.17619	60.32374	1354.71899	-238.34801	640.86713	1613.3219	-242.69069	515.56305	1586.83447	-310.00058	256.43002	1573.31616	-335.05579	72.96127	1518.41431	-375.04385	50.23137	1472.77466	-183.04837	38.23203	1520.70996	-255.06616	1708.65674	1431.59631	NaN	NaN	NaN	NaN	NaN	NaN	NaN	NaN	NaN	NaN	NaN	NaN	NaN	NaN	NaN	NaN	NaN	NaN	NaN	NaN	NaN
98	0.97	-148.49789	1667.47461	1368.49036	-141.23373	1660.95618	1500.26294	-281.66986	1613.4259	1377.44336	-273.25369	1612.2511	1506.95215	-280.54132	1460.88257	1439.24036	-332.22568	1135.75134	1454.97705	-173.46852	1378.90271	1435.56079	-143.83672	1202.6521	1432.77283	-356.53802	1297.95239	1526.04907	-236.59064	1409.49011	1275.56018	-265.58649	1206.47791	1210.96716	-282.09006	1094.17151	1205.75195	-266.44247	943.91656	1185.76135	-204.11911	829.15582	1225.32678	-267.96344	825.20972	1191.67761	-227.78694	743.21466	1190.6925	-209.80812	1418.39294	1596.76929	-258.67859	1232.13098	1699.85046	-251.13304	1113.91992	1722.52673	-202.01236	1007.22009	1740.22986	-99.97598	899.41949	1699.67456	-146.23669	882.78625	1744.49585	-84.46997	826.19684	1743.44849	-163.44048	965.6394	1344.4292	-159.85754	974.82526	1563.28198	-322.15744	997.38782	1373.7771	-311.19867	1007.70032	1541.77319	-168.44688	657.3681	1289.9314	-113.68268	504.40521	1316.2356	-241.99974	291.67474	1321.08301	-326.40482	141.23688	1356.48804	-370.08496	142.03601	1403.04626	-208.59309	57.83371	1355.84741	-231.80513	640.03314	1612.97375	-237.98985	514.75708	1587.00708	-307.45581	256.30814	1572.88855	-334.57608	73.14319	1518.08386	-374.90863	50.59608	1472.52563	-182.84435	38.15116	1520.7489	-245.4106	1708.37341	1431.82275	NaN	NaN	NaN	NaN	NaN	NaN	NaN	NaN	NaN	NaN	NaN	NaN	NaN	NaN	NaN	NaN	NaN	NaN	NaN	NaN	NaN
99	0.98	-139.04631	1666.84973	1368.50024	-131.49574	1660.6062	1500.25854	-272.18732	1612.9187	1377.85022	-263.51334	1611.97778	1507.35999	-270.77847	1460.35596	1439.61902	-322.49405	1135.16711	1455.99023	-163.8324	1378.49841	1436.06885	-133.98792	1202.44324	1433.78589	-346.71472	1297.422	1526.87793	-227.0584	1408.86597	1276.12952	-259.42764	1206.45764	1211.55298	-278.65164	1094.5675	1206.24646	-266.4437	943.93958	1186.23486	-208.07623	826.99316	1225.90271	-270.98691	825.27472	1192.10266	-234.15608	742.03058	1191.19434	-200.36665	1418.36108	1597.36279	-248.64107	1232.16479	1700.823	-240.10709	1114.29565	1723.67871	-188.30222	1009.10107	1741.02356	-82.65549	905.15991	1700.19666	-128.89883	886.41217	1744.54041	-65.32431	831.95917	1743.36133	-152.96159	965.771	1345.54907	-150.54388	974.02545	1564.26843	-312.1412	997.03809	1374.27783	-301.67886	1006.92084	1542.30994	-154.93617	658.4552	1289.67139	-99.034	505.91461	1316.95667	-218.96977	287.30545	1321.57153	-295.45581	132.64262	1357.0061	-339.36218	131.29814	1403.53906	-174.14883	55.72937	1357.35791	-225.47894	639.20563	1612.7229	-232.96028	513.95715	1587.0542	-304.73413	256.12482	1572.43567	-334.05075	73.39137	1517.74475	-374.65778	50.95008	1472.20325	-182.96487	37.95618	1521.2262	-235.81425	1707.97961	1431.99329	NaN	NaN	NaN	NaN	NaN	NaN	NaN	NaN	NaN	NaN	NaN	NaN	NaN	NaN	NaN	NaN	NaN	NaN	NaN	NaN	NaN
100	0.99	-129.62241	1666.16968	1368.44409	-121.76889	1660.19299	1500.17932	-262.77475	1612.31042	1378.18604	-253.7977	1611.66431	1507.70142	-261.125	1459.82703	1440.07446	-312.77789	1134.53528	1456.87061	-154.15355	1378.0564	1436.7262	-124.08234	1202.15173	1434.89941	-337.14166	1296.91931	1527.72021	-217.35703	1408.08142	1276.64319	-252.96249	1206.27478	1212.39233	-274.58252	1094.95764	1206.88098	-266.2533	944.05115	1186.70471	-211.25766	825.41571	1226.08777	-274.72525	825.612	1192.15857	-240.06418	740.95068	1191.78442	-190.89406	1418.15454	1597.90698	-238.48961	1232.03918	1701.73499	-229.04407	1114.51147	1724.74951	-174.65451	1010.84357	1741.74976	-65.96567	910.52435	1700.35034	-111.96341	889.8172	1744.32483	-46.55754	837.39404	1742.95337	-142.55368	965.76959	1346.63232	-141.32159	973.12427	1565.25403	-301.74286	996.41107	1374.73572	-292.45953	1006.10864	1542.76575	-141.7135	659.28461	1289.63257	-85.04388	507.09631	1317.47034	-195.85068	282.76282	1322.08508	-264.02966	124.15517	1357.70703	-307.74454	120.7589	1404.41199	-138.94862	53.97238	1358.0874	-218.72594	638.26733	1612.58264	-227.5898	513.06934	1586.76904	-301.86389	255.90001	1571.90906	-333.5513	73.65657	1517.3075	-374.59961	51.59398	1471.87268	-182.59216	37.80354	1521.22485	-226.18321	1707.44043	1432.03418	NaN	NaN	NaN	NaN	NaN	NaN	NaN	NaN	NaN	NaN	NaN	NaN	NaN	NaN	NaN	NaN	NaN	NaN	NaN	NaN	NaN
101	1	-120.18459	1665.39526	1368.27344	-112.06812	1659.70288	1500.09058	-253.30901	1611.49524	1378.47229	-244.09436	1611.18408	1507.96399	-251.4118	1459.15405	1440.43518	-302.95309	1133.76746	1457.63025	-144.35745	1377.5177	1437.31079	-114.14539	1201.78906	1435.90674	-327.44733	1296.37915	1528.50195	-207.58487	1407.16479	1277.11255	-246.36766	1206.06604	1213.09253	-270.34433	1095.24426	1207.74731	-266.00641	944.28339	1187.19116	-213.80481	824.23602	1225.99683	-277.07266	826.02393	1192.27527	-245.72546	740.22595	1192.18115	-181.35274	1417.89258	1598.40686	-228.20596	1231.82751	1702.60498	-218.00322	1114.55615	1725.70215	-161.23448	1012.33649	1741.98743	-49.69546	915.49835	1700.37317	-95.19635	893.14764	1744.18726	-28.44556	842.58722	1742.62573	-132.16057	965.61469	1347.84644	-132.07222	972.26434	1566.29871	-291.64093	995.84119	1374.98877	-283.15601	1005.10846	1543.02637	-128.5856	659.9455	1288.98047	-71.61287	507.93726	1317.84253	-172.6748	278.09341	1322.57227	-232.14301	115.93851	1358.53271	-275.4245	110.53194	1405.44653	-103.89103	52.67182	1359.42065	-211.92453	637.18951	1612.44067	-221.63385	512.15552	1586.23474	-298.77969	255.76701	1571.41138	-332.86118	73.96565	1516.82971	-374.20547	52.00238	1471.47815	-182.60143	37.576	1521.69312	-216.64539	1706.78967	1432.05383	NaN	NaN	NaN	NaN	NaN	NaN	NaN	NaN	NaN	NaN	NaN	NaN	NaN	NaN	NaN	NaN	NaN	NaN	NaN	NaN	NaN
